<?xml version="1.0" encoding="UTF-8"?>
<svg xmlns="http://www.w3.org/2000/svg" xmlns:xlink="http://www.w3.org/1999/xlink" width="200px" height="200px" viewBox="0 0 200 200" version="1.1">
<defs>
<clipPath id="clip1">
  <path d="M 34.132812 110.398438 L 45.867188 110.398438 L 45.867188 119.652344 L 34.132812 119.652344 Z M 34.132812 110.398438 "/>
</clipPath>
</defs>
<g id="surface1">
<path style=" stroke:none;fill-rule:nonzero;fill:rgb(23.529412%,32.54902%,67.45098%);fill-opacity:1;" d="M 20.175781 109.238281 C 17.730469 109.238281 15.648438 108.671875 13.957031 107.535156 C 10.246094 105.042969 9.863281 100.777344 9.851562 100.601562 C 9.515625 96.117188 10.511719 92.632812 12.816406 90.234375 C 16.105469 86.804688 20.820312 86.933594 21.019531 86.945312 C 21.511719 86.960938 21.894531 87.375 21.878906 87.867188 C 21.859375 88.359375 21.453125 88.738281 20.957031 88.726562 C 20.894531 88.722656 16.804688 88.636719 14.085938 91.484375 C 12.160156 93.503906 11.332031 96.519531 11.625 100.460938 C 11.628906 100.488281 11.96875 104.066406 14.964844 106.066406 C 17.652344 107.859375 21.644531 107.921875 26.824219 106.257812 C 27.289062 106.105469 27.792969 106.363281 27.941406 106.832031 C 28.089844 107.300781 27.832031 107.804688 27.367188 107.953125 C 24.703125 108.8125 22.300781 109.238281 20.175781 109.238281 Z M 20.175781 109.238281 "/>
<path style=" stroke:none;fill-rule:nonzero;fill:rgb(23.529412%,32.54902%,67.45098%);fill-opacity:1;" d="M 34.738281 112.199219 C 31.316406 112.199219 28.847656 110.058594 28.804688 110.023438 C 26.257812 107.886719 25.039062 105.558594 25.203125 103.132812 C 25.441406 99.597656 28.566406 97.023438 29.714844 96.195312 L 29.714844 92.796875 C 29.714844 92.304688 30.113281 91.902344 30.605469 91.902344 C 31.097656 91.902344 31.496094 92.304688 31.496094 92.796875 L 31.496094 96.664062 C 31.496094 96.96875 31.339844 97.253906 31.082031 97.417969 C 31.042969 97.441406 27.199219 99.917969 26.976562 103.257812 C 26.855469 105.085938 27.863281 106.90625 29.96875 108.671875 C 30.191406 108.867188 35.050781 113.019531 40.277344 107.785156 C 40.671875 107.183594 42.9375 103.984375 46.582031 103.363281 C 48.941406 102.960938 51.328125 103.710938 53.679688 105.601562 C 54.066406 105.910156 54.128906 106.472656 53.820312 106.855469 C 53.511719 107.238281 52.953125 107.300781 52.566406 106.992188 C 50.632812 105.441406 48.726562 104.808594 46.894531 105.117188 C 43.746094 105.648438 41.746094 108.789062 41.726562 108.820312 C 41.695312 108.871094 41.652344 108.925781 41.605469 108.972656 C 39.191406 111.429688 36.792969 112.199219 34.738281 112.199219 Z M 34.738281 112.199219 "/>
<path style=" stroke:none;fill-rule:nonzero;fill:rgb(23.529412%,32.54902%,67.45098%);fill-opacity:1;" d="M 36.308594 97.554688 L 30.605469 97.554688 C 30.113281 97.554688 29.714844 97.152344 29.714844 96.664062 C 29.714844 96.171875 30.113281 95.769531 30.605469 95.769531 L 36.308594 95.769531 C 36.800781 95.769531 37.199219 96.171875 37.199219 96.664062 C 37.199219 97.152344 36.800781 97.554688 36.308594 97.554688 Z M 36.308594 97.554688 "/>
<path style=" stroke:none;fill-rule:nonzero;fill:rgb(23.529412%,32.54902%,67.45098%);fill-opacity:1;" d="M 53.566406 112.222656 C 51.757812 112.222656 49.609375 111.695312 47.132812 110.640625 C 46.679688 110.445312 46.46875 109.921875 46.660156 109.46875 C 46.855469 109.015625 47.378906 108.804688 47.828125 108.996094 C 51.890625 110.726562 54.808594 110.910156 56.507812 109.542969 C 58.714844 107.761719 58.464844 103.464844 58.179688 101.960938 C 57.746094 99.527344 56.773438 97.886719 55.292969 97.074219 C 52.847656 95.734375 49.695312 97.011719 49.664062 97.023438 C 49.644531 97.035156 49.621094 97.042969 49.601562 97.046875 C 43.445312 99.085938 40.792969 96.476562 40.683594 96.363281 C 40.339844 96.011719 40.34375 95.449219 40.695312 95.105469 C 41.042969 94.761719 41.601562 94.761719 41.945312 95.105469 C 42.046875 95.203125 44.042969 97.003906 49.015625 95.363281 C 49.441406 95.195312 53.058594 93.824219 56.136719 95.503906 C 58.117188 96.585938 59.394531 98.648438 59.929688 101.640625 C 59.980469 101.894531 61.105469 108.121094 57.621094 110.929688 C 56.554688 111.792969 55.199219 112.222656 53.566406 112.222656 Z M 53.566406 112.222656 "/>
<path style=" stroke:none;fill-rule:nonzero;fill:rgb(23.529412%,32.54902%,67.45098%);fill-opacity:1;" d="M 47.363281 118.730469 C 47.121094 118.730469 46.878906 118.628906 46.703125 118.433594 C 41.398438 112.503906 42.851562 109.707031 43.035156 109.410156 L 44.554688 110.339844 C 44.554688 110.339844 44.5625 110.328125 44.574219 110.300781 C 44.566406 110.320312 43.675781 112.378906 48.027344 117.242188 C 48.355469 117.609375 48.324219 118.171875 47.957031 118.503906 C 47.789062 118.652344 47.578125 118.730469 47.363281 118.730469 Z M 47.363281 118.730469 "/>
<g clip-path="url(#clip1)" clip-rule="nonzero">
<path style=" stroke:none;fill-rule:nonzero;fill:rgb(23.529412%,32.54902%,67.45098%);fill-opacity:1;" d="M 44.601562 119.652344 C 44.347656 119.652344 44.09375 119.546875 43.917969 119.332031 C 42.003906 117.03125 34.949219 112.113281 34.878906 112.066406 C 34.476562 111.785156 34.375 111.230469 34.65625 110.824219 C 34.933594 110.417969 35.488281 110.320312 35.894531 110.601562 C 36.191406 110.804688 43.214844 115.703125 45.285156 118.191406 C 45.601562 118.570312 45.546875 119.132812 45.171875 119.449219 C 45.003906 119.585938 44.800781 119.652344 44.601562 119.652344 Z M 44.601562 119.652344 "/>
</g>
<path style=" stroke:none;fill-rule:nonzero;fill:rgb(23.529412%,32.54902%,67.45098%);fill-opacity:1;" d="M 31.699219 106.84375 C 31.617188 106.84375 31.53125 106.832031 31.445312 106.804688 C 30.976562 106.664062 30.707031 106.171875 30.847656 105.699219 C 30.886719 105.566406 31.863281 102.363281 34.414062 101.164062 C 35.738281 100.539062 37.210938 100.566406 38.789062 101.234375 C 38.839844 101.257812 38.890625 101.285156 38.9375 101.316406 C 38.960938 101.332031 41.617188 103.066406 42.730469 101.835938 C 43.0625 101.472656 43.625 101.441406 43.988281 101.773438 C 44.355469 102.105469 44.382812 102.667969 44.050781 103.035156 C 42.351562 104.910156 39.496094 103.820312 38.015625 102.847656 C 36.945312 102.402344 36.015625 102.382812 35.175781 102.773438 C 33.351562 103.632812 32.558594 106.183594 32.554688 106.210938 C 32.4375 106.597656 32.082031 106.84375 31.699219 106.84375 Z M 31.699219 106.84375 "/>
<path style=" stroke:none;fill-rule:nonzero;fill:rgb(23.529412%,32.54902%,67.45098%);fill-opacity:1;" d="M 37.054688 102.496094 C 36.820312 102.496094 36.582031 102.402344 36.40625 102.214844 C 34.808594 100.5 37.390625 97.726562 37.921875 97.191406 C 38.269531 96.839844 38.832031 96.835938 39.179688 97.183594 C 39.527344 97.53125 39.53125 98.097656 39.183594 98.445312 C 38.164062 99.480469 37.488281 100.761719 37.707031 100.996094 C 38.042969 101.359375 38.023438 101.921875 37.664062 102.257812 C 37.492188 102.417969 37.273438 102.496094 37.054688 102.496094 Z M 37.054688 102.496094 "/>
<path style=" stroke:none;fill-rule:nonzero;fill:rgb(23.529412%,32.54902%,67.45098%);fill-opacity:1;" d="M 26.078125 95.882812 C 26.019531 95.882812 25.960938 95.878906 25.902344 95.867188 C 24.449219 95.574219 23.472656 94.90625 23.007812 93.882812 C 22.230469 92.175781 23.261719 90.261719 23.382812 90.050781 C 23.625 89.621094 24.167969 89.472656 24.597656 89.714844 C 25.023438 89.957031 25.171875 90.5 24.933594 90.925781 C 24.730469 91.292969 24.285156 92.394531 24.628906 93.144531 C 24.847656 93.617188 25.390625 93.945312 26.253906 94.117188 C 26.734375 94.214844 27.046875 94.683594 26.949219 95.167969 C 26.863281 95.589844 26.492188 95.882812 26.078125 95.882812 Z M 26.078125 95.882812 "/>
<path style=" stroke:none;fill-rule:nonzero;fill:rgb(23.529412%,32.54902%,67.45098%);fill-opacity:1;" d="M 18.886719 104.34375 C 18.484375 104.34375 18.117188 104.070312 18.019531 103.660156 C 15.734375 94.109375 23.371094 92.148438 23.449219 92.128906 C 23.925781 92.011719 24.40625 92.308594 24.519531 92.789062 C 24.636719 93.265625 24.34375 93.746094 23.867188 93.863281 C 23.609375 93.925781 17.890625 95.46875 19.753906 103.242188 C 19.867188 103.722656 19.570312 104.203125 19.09375 104.320312 C 19.023438 104.335938 18.953125 104.34375 18.886719 104.34375 Z M 18.886719 104.34375 "/>
<path style=" stroke:none;fill-rule:nonzero;fill:rgb(23.529412%,32.54902%,67.45098%);fill-opacity:1;" d="M 16.941406 100.316406 C 15.945312 100.316406 15.121094 100.035156 14.480469 99.476562 C 12.890625 98.085938 13.179688 95.566406 13.195312 95.460938 C 13.257812 94.972656 13.699219 94.625 14.1875 94.683594 C 14.675781 94.746094 15.019531 95.191406 14.960938 95.675781 C 14.910156 96.148438 14.925781 97.503906 15.652344 98.132812 C 16.183594 98.59375 17.082031 98.660156 18.320312 98.324219 C 18.792969 98.195312 19.28125 98.480469 19.410156 98.953125 C 19.535156 99.429688 19.253906 99.921875 18.777344 100.046875 C 18.113281 100.226562 17.5 100.316406 16.941406 100.316406 Z M 16.941406 100.316406 "/>
<path style=" stroke:none;fill-rule:nonzero;fill:rgb(23.529412%,32.54902%,67.45098%);fill-opacity:1;" d="M 37.289062 94.269531 C 36.910156 94.269531 36.558594 94.027344 36.441406 93.648438 C 35.902344 91.972656 35.019531 90.8125 33.820312 90.203125 C 31.890625 89.226562 29.707031 89.945312 29.683594 89.949219 C 29.566406 89.988281 29.441406 90.007812 29.316406 89.992188 C 28.660156 89.933594 28.097656 89.636719 27.691406 89.136719 C 26.742188 87.96875 26.933594 86.046875 26.957031 85.832031 C 27.015625 85.339844 27.453125 84.988281 27.945312 85.046875 C 28.429688 85.105469 28.78125 85.542969 28.726562 86.035156 C 28.675781 86.480469 28.699219 87.550781 29.074219 88.011719 C 29.148438 88.105469 29.230469 88.164062 29.339844 88.195312 C 30.070312 87.992188 32.398438 87.496094 34.605469 88.601562 C 36.257812 89.433594 37.445312 90.949219 38.136719 93.105469 C 38.285156 93.574219 38.027344 94.074219 37.558594 94.226562 C 37.46875 94.253906 37.378906 94.269531 37.289062 94.269531 Z M 37.289062 94.269531 "/>
<path style=" stroke:none;fill-rule:nonzero;fill:rgb(23.529412%,32.54902%,67.45098%);fill-opacity:1;" d="M 27.457031 91.925781 C 27.230469 91.925781 27.007812 91.839844 26.832031 91.671875 C 26.480469 91.324219 26.476562 90.761719 26.820312 90.410156 L 28.523438 88.671875 C 28.867188 88.320312 29.429688 88.316406 29.78125 88.660156 C 30.132812 89.003906 30.136719 89.570312 29.792969 89.921875 L 28.089844 91.660156 C 27.917969 91.835938 27.6875 91.925781 27.457031 91.925781 Z M 27.457031 91.925781 "/>
<path style=" stroke:none;fill-rule:nonzero;fill:rgb(23.529412%,32.54902%,67.45098%);fill-opacity:1;" d="M 36.308594 92.191406 C 36.265625 92.191406 36.226562 92.1875 36.179688 92.179688 C 35.695312 92.113281 35.359375 91.660156 35.425781 91.171875 C 35.878906 88.007812 40.832031 88.34375 41.394531 88.390625 C 41.886719 88.433594 42.246094 88.867188 42.203125 89.355469 C 42.164062 89.847656 41.734375 90.207031 41.242188 90.167969 C 39.992188 90.066406 37.359375 90.230469 37.191406 91.425781 C 37.125 91.871094 36.746094 92.191406 36.308594 92.191406 Z M 36.308594 92.191406 "/>
<path style=" stroke:none;fill-rule:nonzero;fill:rgb(23.529412%,32.54902%,67.45098%);fill-opacity:1;" d="M 45.921875 97.554688 C 45.703125 97.554688 45.484375 97.476562 45.3125 97.316406 C 43.488281 95.613281 45.113281 92.828125 46.359375 91.449219 C 46.691406 91.085938 47.253906 91.058594 47.617188 91.390625 C 47.980469 91.722656 48.007812 92.285156 47.679688 92.648438 C 47.222656 93.15625 45.679688 95.222656 46.527344 96.011719 C 46.886719 96.347656 46.90625 96.910156 46.570312 97.269531 C 46.394531 97.457031 46.160156 97.554688 45.921875 97.554688 Z M 45.921875 97.554688 "/>
<path style=" stroke:none;fill-rule:nonzero;fill:rgb(23.529412%,32.54902%,67.45098%);fill-opacity:1;" d="M 20.386719 90.546875 C 20.3125 90.546875 20.238281 90.539062 20.164062 90.515625 C 19.683594 90.390625 19.402344 89.902344 19.523438 89.429688 C 19.601562 89.148438 21.386719 82.566406 27.03125 82.167969 C 27.054688 82.164062 27.078125 82.164062 27.105469 82.164062 C 27.285156 82.167969 31.523438 82.25 33.550781 85.457031 C 33.816406 85.871094 33.691406 86.421875 33.277344 86.683594 C 32.863281 86.949219 32.3125 86.824219 32.046875 86.410156 C 30.609375 84.136719 27.464844 83.960938 27.113281 83.949219 C 22.761719 84.289062 21.261719 89.824219 21.246094 89.882812 C 21.144531 90.28125 20.785156 90.546875 20.386719 90.546875 Z M 20.386719 90.546875 "/>
<path style=" stroke:none;fill-rule:nonzero;fill:rgb(23.529412%,32.54902%,67.45098%);fill-opacity:1;" d="M 42.589844 85.976562 C 42.300781 85.976562 42.019531 85.835938 41.847656 85.578125 C 40.683594 83.832031 39.300781 82.851562 37.738281 82.667969 C 34.714844 82.320312 31.855469 84.957031 31.824219 84.984375 C 31.464844 85.320312 30.902344 85.300781 30.566406 84.941406 C 30.230469 84.582031 30.246094 84.019531 30.605469 83.679688 C 30.746094 83.550781 34.085938 80.453125 37.929688 80.894531 C 40.042969 81.140625 41.859375 82.382812 43.328125 84.585938 C 43.601562 84.996094 43.492188 85.550781 43.082031 85.824219 C 42.929688 85.925781 42.757812 85.976562 42.589844 85.976562 Z M 42.589844 85.976562 "/>
<path style=" stroke:none;fill-rule:nonzero;fill:rgb(23.529412%,32.54902%,67.45098%);fill-opacity:1;" d="M 55.453125 94.269531 C 55.078125 94.269531 54.730469 94.027344 54.609375 93.652344 C 53.621094 90.636719 51.925781 88.519531 49.566406 87.359375 C 45.09375 85.164062 39.679688 87.054688 39.625 87.074219 C 39.160156 87.238281 38.652344 86.996094 38.488281 86.535156 C 38.324219 86.070312 38.566406 85.558594 39.027344 85.394531 C 39.277344 85.304688 45.210938 83.234375 50.347656 85.757812 C 53.15625 87.136719 55.160156 89.609375 56.300781 93.097656 C 56.453125 93.566406 56.199219 94.070312 55.730469 94.222656 C 55.640625 94.253906 55.546875 94.269531 55.453125 94.269531 Z M 55.453125 94.269531 "/>
<path style=" stroke:none;fill-rule:nonzero;fill:rgb(23.529412%,32.54902%,67.45098%);fill-opacity:1;" d="M 58.613281 100.941406 C 58.566406 100.941406 58.519531 100.933594 58.472656 100.929688 C 57.984375 100.851562 57.65625 100.390625 57.734375 99.90625 C 58.058594 97.882812 57.765625 96.382812 56.859375 95.449219 C 55.402344 93.945312 52.703125 94.257812 52.675781 94.261719 C 52.1875 94.324219 51.742188 93.980469 51.675781 93.492188 C 51.613281 93.003906 51.953125 92.554688 52.441406 92.492188 C 52.585938 92.472656 56.039062 92.042969 58.136719 94.203125 C 59.457031 95.566406 59.914062 97.578125 59.492188 100.191406 C 59.421875 100.628906 59.042969 100.941406 58.613281 100.941406 Z M 58.613281 100.941406 "/>
<path style=" stroke:none;fill-rule:nonzero;fill:rgb(0%,0%,0%);fill-opacity:1;" d="M 71.101562 98.484375 C 71.558594 98.796875 71.921875 99.199219 72.195312 99.699219 C 72.472656 100.195312 72.609375 100.742188 72.609375 101.339844 C 72.609375 101.824219 72.515625 102.277344 72.328125 102.699219 C 72.144531 103.117188 71.894531 103.480469 71.578125 103.792969 C 71.261719 104.105469 70.890625 104.351562 70.46875 104.535156 C 70.054688 104.710938 69.601562 104.800781 69.121094 104.800781 L 63.84375 104.800781 L 63.84375 93.191406 L 68.953125 93.191406 C 69.390625 93.191406 69.804688 93.277344 70.1875 93.449219 C 70.570312 93.617188 70.90625 93.839844 71.195312 94.125 C 71.480469 94.410156 71.707031 94.742188 71.871094 95.125 C 72.035156 95.503906 72.121094 95.914062 72.121094 96.351562 C 72.121094 96.824219 72.027344 97.238281 71.84375 97.589844 C 71.664062 97.941406 71.417969 98.238281 71.101562 98.484375 Z M 66.335938 97.550781 L 68.953125 97.550781 C 69.246094 97.550781 69.496094 97.449219 69.703125 97.242188 C 69.914062 97.03125 70.019531 96.777344 70.019531 96.484375 C 70.019531 96.191406 69.914062 95.945312 69.703125 95.75 C 69.496094 95.550781 69.246094 95.449219 68.953125 95.449219 L 66.335938 95.449219 Z M 69.121094 102.558594 C 69.445312 102.558594 69.722656 102.421875 69.953125 102.140625 C 70.1875 101.863281 70.304688 101.539062 70.304688 101.167969 C 70.304688 100.785156 70.1875 100.460938 69.953125 100.199219 C 69.722656 99.941406 69.445312 99.808594 69.121094 99.808594 L 66.335938 99.808594 L 66.335938 102.558594 Z M 69.121094 102.558594 "/>
<path style=" stroke:none;fill-rule:nonzero;fill:rgb(0%,0%,0%);fill-opacity:1;" d="M 82.972656 96.640625 C 82.972656 97.015625 82.917969 97.367188 82.816406 97.699219 C 82.707031 98.035156 82.5625 98.339844 82.375 98.617188 C 82.191406 98.894531 81.96875 99.140625 81.707031 99.359375 C 81.445312 99.570312 81.160156 99.742188 80.855469 99.875 L 84.707031 104.800781 L 81.808594 104.800781 L 78.222656 100.117188 L 77.105469 100.117188 L 77.105469 104.800781 L 74.613281 104.800781 L 74.613281 93.191406 L 79.632812 93.191406 C 80.085938 93.191406 80.519531 93.285156 80.933594 93.464844 C 81.34375 93.644531 81.699219 93.890625 82 94.199219 C 82.296875 94.511719 82.535156 94.878906 82.707031 95.300781 C 82.882812 95.714844 82.972656 96.164062 82.972656 96.640625 Z M 79.316406 97.859375 C 79.632812 97.859375 79.902344 97.742188 80.132812 97.507812 C 80.363281 97.269531 80.480469 96.980469 80.480469 96.640625 C 80.480469 96.316406 80.363281 96.035156 80.132812 95.800781 C 79.902344 95.566406 79.632812 95.449219 79.316406 95.449219 L 77.105469 95.449219 L 77.105469 97.859375 Z M 79.316406 97.859375 "/>
<path style=" stroke:none;fill-rule:nonzero;fill:rgb(0%,0%,0%);fill-opacity:1;" d="M 93.65625 93.191406 L 98.507812 104.800781 L 95.816406 104.800781 L 94.773438 102.308594 L 89.839844 102.308594 L 88.808594 104.800781 L 86.105469 104.800781 L 90.957031 93.191406 Z M 93.839844 100.050781 L 92.316406 96.398438 L 90.789062 100.050781 Z M 93.839844 100.050781 "/>
<path style=" stroke:none;fill-rule:nonzero;fill:rgb(0%,0%,0%);fill-opacity:1;" d="M 104.507812 93.191406 L 104.507812 95.285156 L 103.640625 95.285156 L 103.640625 102.714844 L 104.507812 102.714844 L 104.507812 104.800781 L 100.28125 104.800781 L 100.28125 102.714844 L 101.148438 102.714844 L 101.148438 95.285156 L 100.28125 95.285156 L 100.28125 93.191406 Z M 104.507812 93.191406 "/>
<path style=" stroke:none;fill-rule:nonzero;fill:rgb(0%,0%,0%);fill-opacity:1;" d="M 114.625 93.191406 L 117.097656 93.191406 L 117.097656 104.800781 L 114.742188 104.800781 L 109.15625 97.214844 L 109.15625 104.800781 L 106.683594 104.800781 L 106.683594 93.191406 L 109.007812 93.191406 L 114.625 100.824219 Z M 114.625 93.191406 "/>
<path style=" stroke:none;fill-rule:nonzero;fill:rgb(0%,0%,0%);fill-opacity:1;" d="M 126.679688 98.824219 C 127.132812 99.097656 127.480469 99.449219 127.71875 99.875 C 127.964844 100.296875 128.085938 100.789062 128.085938 101.339844 C 128.085938 101.871094 127.957031 102.363281 127.703125 102.816406 C 127.453125 103.265625 127.097656 103.667969 126.644531 104.015625 C 126.226562 104.332031 125.753906 104.578125 125.21875 104.75 C 124.691406 104.917969 124.132812 105.003906 123.542969 105.015625 C 122.953125 105.015625 122.394531 104.933594 121.859375 104.773438 C 121.328125 104.609375 120.851562 104.363281 120.4375 104.035156 C 119.8125 103.5625 119.386719 102.992188 119.160156 102.324219 L 121.453125 101.265625 C 121.453125 101.371094 121.488281 101.507812 121.5625 101.675781 C 121.636719 101.835938 121.757812 101.996094 121.917969 102.148438 C 122.085938 102.300781 122.296875 102.429688 122.5625 102.542969 C 122.828125 102.648438 123.148438 102.699219 123.527344 102.699219 C 123.832031 102.699219 124.101562 102.664062 124.335938 102.589844 C 124.574219 102.515625 124.773438 102.421875 124.929688 102.308594 C 125.089844 102.191406 125.207031 102.0625 125.285156 101.917969 C 125.371094 101.765625 125.410156 101.613281 125.410156 101.457031 C 125.410156 101.289062 125.351562 101.125 125.234375 100.976562 C 125.125 100.820312 124.949219 100.699219 124.710938 100.609375 C 124.273438 100.453125 123.808594 100.324219 123.320312 100.226562 C 122.835938 100.121094 122.363281 99.988281 121.902344 99.832031 C 121.445312 99.671875 121.023438 99.460938 120.628906 99.199219 C 120.238281 98.941406 119.929688 98.574219 119.695312 98.101562 C 119.488281 97.691406 119.386719 97.246094 119.386719 96.773438 C 119.386719 96.253906 119.507812 95.746094 119.753906 95.257812 C 120.003906 94.765625 120.339844 94.347656 120.761719 94.007812 C 121.164062 93.691406 121.621094 93.449219 122.121094 93.285156 C 122.625 93.113281 123.15625 93.023438 123.710938 93.023438 C 124.265625 93.023438 124.796875 93.109375 125.304688 93.273438 C 125.8125 93.4375 126.273438 93.675781 126.679688 93.992188 C 127.066406 94.289062 127.378906 94.632812 127.609375 95.023438 L 125.746094 96.300781 C 125.511719 95.984375 125.222656 95.730469 124.878906 95.542969 C 124.539062 95.347656 124.15625 95.25 123.726562 95.25 C 123.136719 95.25 122.683594 95.382812 122.359375 95.648438 C 122.039062 95.914062 121.878906 96.253906 121.878906 96.675781 C 121.878906 96.875 121.964844 97.054688 122.144531 97.207031 C 122.328125 97.359375 122.5625 97.496094 122.851562 97.617188 C 123.140625 97.734375 123.464844 97.839844 123.828125 97.933594 C 124.1875 98.023438 124.542969 98.113281 124.894531 98.207031 C 125.25 98.304688 125.585938 98.398438 125.902344 98.5 C 126.21875 98.597656 126.476562 98.703125 126.679688 98.824219 Z M 126.679688 98.824219 "/>
<path style=" stroke:none;fill-rule:nonzero;fill:rgb(0%,0%,0%);fill-opacity:1;" d="M 135.5 102.542969 C 136.019531 102.542969 136.53125 102.421875 137.03125 102.183594 C 137.535156 101.941406 138.046875 101.535156 138.558594 100.964844 L 140.167969 102.492188 C 139.519531 103.320312 138.785156 103.949219 137.957031 104.375 C 137.136719 104.800781 136.285156 105.015625 135.417969 105.015625 C 134.625 105.015625 133.886719 104.855469 133.199219 104.535156 C 132.515625 104.210938 131.917969 103.777344 131.40625 103.234375 C 130.902344 102.683594 130.503906 102.046875 130.214844 101.324219 C 129.925781 100.597656 129.78125 99.824219 129.78125 99 C 129.78125 98.183594 129.933594 97.417969 130.234375 96.699219 C 130.53125 95.980469 130.9375 95.347656 131.449219 94.800781 C 131.964844 94.25 132.570312 93.816406 133.265625 93.5 C 133.964844 93.183594 134.710938 93.023438 135.5 93.023438 C 136.226562 93.023438 136.921875 93.164062 137.582031 93.433594 C 138.242188 93.707031 138.890625 94.160156 139.523438 94.792969 L 138.082031 96.550781 C 137.625 96.121094 137.191406 95.835938 136.78125 95.691406 C 136.371094 95.542969 135.941406 95.464844 135.5 95.464844 C 135.050781 95.464844 134.625 95.5625 134.222656 95.75 C 133.828125 95.933594 133.484375 96.183594 133.191406 96.5 C 132.894531 96.816406 132.660156 97.191406 132.492188 97.625 C 132.324219 98.054688 132.242188 98.511719 132.242188 99 C 132.242188 99.496094 132.324219 99.957031 132.492188 100.382812 C 132.660156 100.804688 132.894531 101.179688 133.191406 101.5 C 133.484375 101.824219 133.828125 102.078125 134.222656 102.265625 C 134.625 102.449219 135.050781 102.542969 135.5 102.542969 Z M 135.5 102.542969 "/>
<path style=" stroke:none;fill-rule:nonzero;fill:rgb(0%,0%,0%);fill-opacity:1;" d="M 149.199219 93.191406 L 154.046875 104.800781 L 151.355469 104.800781 L 150.3125 102.308594 L 145.378906 102.308594 L 144.347656 104.800781 L 141.648438 104.800781 L 146.496094 93.191406 Z M 149.378906 100.050781 L 147.855469 96.398438 L 146.332031 100.050781 Z M 149.378906 100.050781 "/>
<path style=" stroke:none;fill-rule:nonzero;fill:rgb(0%,0%,0%);fill-opacity:1;" d="M 163.761719 93.191406 L 166.238281 93.191406 L 166.238281 104.800781 L 163.878906 104.800781 L 158.296875 97.214844 L 158.296875 104.800781 L 155.820312 104.800781 L 155.820312 93.191406 L 158.148438 93.191406 L 163.761719 100.824219 Z M 163.761719 93.191406 "/>
<path style=" stroke:none;fill-rule:nonzero;fill:rgb(0%,0%,0%);fill-opacity:1;" d="M 180.722656 93.191406 L 185.574219 104.800781 L 182.882812 104.800781 L 181.839844 102.308594 L 176.90625 102.308594 L 175.875 104.800781 L 173.175781 104.800781 L 178.023438 93.191406 Z M 180.90625 100.050781 L 179.382812 96.398438 L 177.859375 100.050781 Z M 180.90625 100.050781 "/>
<path style=" stroke:none;fill-rule:nonzero;fill:rgb(0%,0%,0%);fill-opacity:1;" d="M 191.574219 93.191406 L 191.574219 95.285156 L 190.707031 95.285156 L 190.707031 102.714844 L 191.574219 102.714844 L 191.574219 104.800781 L 187.347656 104.800781 L 187.347656 102.714844 L 188.214844 102.714844 L 188.214844 95.285156 L 187.347656 95.285156 L 187.347656 93.191406 Z M 191.574219 93.191406 "/>
</g>
</svg>
